<?xml version="1.0" encoding="UTF-8"?>
<svg id="Livello_1" data-name="Livello 1" xmlns="http://www.w3.org/2000/svg" viewBox="0 0 115.51 40.51">
  <defs>
    <style>
      .cls-1 {
        fill: #3626a7;
      }

      .cls-2 {
        fill: #222;
      }
    </style>
  </defs>
  <path class="cls-1" d="M.74,39.71L20.97.86s2.98-.13,3.96,0c8.54,1.11,8.46,38.85,8.46,38.85h-4.39l-6.39-29.42c-.17-.8-1.26-.94-1.62-.2l-14.54,29.14c-.15.29-.45.48-.78.48H.74ZM10.21,30.57l1.93-3.92c.15-.3.45-.48.78-.48h13.51l1,4.4H10.21Z"/>
  <path class="cls-2" d="M49.42.8l-.3,2.14h-6.3l-2.34,16.71h-.03l-2.28,16.4c-.02.08-.03.16-.03.23v.08l-.5,3.34c-.52-.08-.94-.28-1.28-.61-.45-.44-.69-1.09-.69-1.97,0-.11,0-.23.02-.36,0-.14.02-.27.03-.41l2.34-16.71h.02l2.34-16.71-6.03-2.14h15.04Z"/>
  <path class="cls-2" d="M45.9,39.71c-.77,0-1.42-.16-1.94-.47-.52-.31-.91-.74-1.17-1.29-.26-.55-.39-1.17-.39-1.87,0-.65.1-1.3.3-1.94.2-.64.5-1.22.88-1.74.39-.52.86-.94,1.41-1.25s1.19-.46,1.9-.46c.79,0,1.44.16,1.92.48.49.32.84.74,1.06,1.25.22.51.33,1.06.33,1.65,0,.23-.02.48-.05.76s-.08.51-.12.7h-6.49c-.01.12-.02.23-.03.32s0,.2,0,.3c0,.81.21,1.43.64,1.87.43.44,1.02.66,1.78.66.56,0,1.05-.09,1.49-.26.43-.17.86-.47,1.29-.88l.75.75c-.57.5-1.13.86-1.67,1.09-.55.23-1.17.34-1.87.34ZM49.1,34.9c.04-.19.06-.36.07-.52.01-.15.02-.33.02-.52,0-.37-.07-.72-.22-1.06-.15-.34-.39-.62-.72-.85-.33-.23-.78-.34-1.33-.34s-1.06.14-1.51.41-.83.64-1.13,1.09c-.3.46-.51.97-.63,1.54h5.82l-.36.23Z"/>
  <path class="cls-2" d="M54.69,39.71c-.59,0-1.12-.09-1.57-.27-.45-.18-.82-.42-1.12-.73-.3-.31-.52-.65-.66-1.01l.85-.59c.15.5.45.9.88,1.2.43.3.98.45,1.63.45.44,0,.84-.07,1.19-.22.36-.15.64-.36.85-.64s.32-.6.32-.97c0-.31-.09-.56-.27-.75-.18-.19-.43-.34-.75-.46-.32-.12-.69-.23-1.12-.34-.32-.08-.63-.17-.93-.28-.3-.1-.56-.23-.8-.38s-.42-.35-.56-.58c-.14-.23-.2-.51-.2-.84,0-.51.14-.96.41-1.35s.65-.7,1.14-.93,1.04-.34,1.67-.34,1.23.15,1.74.44c.5.29.87.72,1.09,1.29l-.77.46c-.19-.45-.47-.78-.83-.98-.36-.2-.79-.3-1.29-.3-.58,0-1.08.14-1.5.43-.41.28-.62.66-.62,1.14,0,.36.15.62.46.79.31.17.76.33,1.35.47.45.11.9.24,1.34.4.45.16.81.39,1.1.68s.44.71.44,1.25c0,.59-.15,1.11-.45,1.56-.3.44-.72.79-1.24,1.03-.52.24-1.13.36-1.82.36Z"/>
  <path class="cls-2" d="M63.09,39.71c-.59,0-1.12-.09-1.57-.27-.45-.18-.82-.42-1.12-.73-.3-.31-.52-.65-.66-1.01l.85-.59c.15.5.45.9.88,1.2.43.3.98.45,1.63.45.44,0,.84-.07,1.19-.22.36-.15.64-.36.85-.64s.32-.6.32-.97c0-.31-.09-.56-.27-.75-.18-.19-.43-.34-.75-.46-.32-.12-.69-.23-1.12-.34-.32-.08-.63-.17-.93-.28-.3-.1-.56-.23-.8-.38s-.42-.35-.56-.58c-.14-.23-.2-.51-.2-.84,0-.51.14-.96.41-1.35s.65-.7,1.14-.93,1.04-.34,1.67-.34,1.23.15,1.74.44c.5.29.87.72,1.09,1.29l-.77.46c-.19-.45-.47-.78-.83-.98-.36-.2-.79-.3-1.29-.3-.58,0-1.08.14-1.5.43-.41.28-.62.66-.62,1.14,0,.36.15.62.46.79.31.17.76.33,1.35.47.45.11.9.24,1.34.4.45.16.81.39,1.1.68s.44.71.44,1.25c0,.59-.15,1.11-.45,1.56-.3.44-.72.79-1.24,1.03-.52.24-1.13.36-1.82.36Z"/>
  <path class="cls-2" d="M72.07,39.71c-.7,0-1.31-.16-1.83-.49-.52-.33-.93-.77-1.21-1.34-.28-.57-.43-1.22-.43-1.94s.11-1.35.34-1.98c.23-.63.55-1.19.96-1.68.41-.49.9-.88,1.47-1.17.56-.28,1.18-.43,1.84-.43.58,0,1.09.11,1.53.33.44.22.79.52,1.07.92.27.39.45.84.52,1.35l-.36.27.39-2.74h1.1l-1.23,8.77h-1.12l.39-2.76.32.28c-.24.55-.54,1.01-.91,1.4-.37.39-.79.68-1.27.89-.48.21-1.01.31-1.57.31ZM72.29,38.68c.53,0,1.02-.12,1.47-.36.44-.24.82-.55,1.14-.95.31-.4.56-.84.73-1.34.17-.5.26-1.01.26-1.53,0-.56-.1-1.04-.31-1.46-.21-.41-.5-.74-.87-.97-.37-.23-.82-.35-1.33-.35-.55,0-1.04.12-1.49.36-.45.24-.84.55-1.16.94-.32.39-.57.84-.74,1.34-.17.5-.26,1.01-.26,1.53s.1,1.03.31,1.45c.21.42.5.75.89.99.39.24.84.36,1.36.36Z"/>
  <path class="cls-2" d="M79,39.58l1.25-8.77h1.12l-.28,2.05-.29-.04c.23-.49.5-.89.84-1.2.33-.31.71-.55,1.12-.7.41-.15.86-.23,1.33-.23.83,0,1.48.22,1.94.66.46.44.69,1.1.69,1.99,0,.12,0,.25,0,.38,0,.14-.02.28-.04.42l-.76,5.45h-1.12l.71-5.11c.02-.14.04-.28.05-.42.01-.14.02-.28.02-.42,0-.68-.15-1.17-.45-1.5-.3-.32-.74-.48-1.33-.48-.8,0-1.45.28-1.98.84s-.87,1.44-1.05,2.65l-.62,4.43h-1.14Z"/>
  <path class="cls-2" d="M92.11,39.71c-.7,0-1.31-.16-1.83-.49-.52-.33-.93-.77-1.21-1.34-.28-.57-.43-1.22-.43-1.94s.11-1.35.34-1.98c.23-.63.55-1.19.96-1.68.41-.49.9-.88,1.47-1.17.56-.28,1.18-.43,1.84-.43.58,0,1.09.11,1.53.33.44.22.79.52,1.07.92.27.39.45.84.52,1.35l-.36.27.89-6.37h1.12l-1.74,12.4h-1.12l.39-2.76.32.28c-.24.55-.54,1.01-.91,1.4-.37.39-.79.68-1.27.89-.48.21-1.01.31-1.57.31ZM92.32,38.68c.53,0,1.02-.12,1.47-.36.44-.24.82-.55,1.14-.95.31-.4.56-.84.73-1.34.17-.5.26-1.01.26-1.53,0-.56-.1-1.04-.31-1.46-.21-.41-.5-.74-.87-.97-.37-.23-.82-.35-1.33-.35-.55,0-1.04.12-1.49.36-.45.24-.84.55-1.16.94-.32.39-.57.84-.74,1.34-.17.5-.26,1.01-.26,1.53s.1,1.03.31,1.45c.21.42.5.75.89.99.39.24.84.36,1.36.36Z"/>
  <path class="cls-2" d="M99.03,39.58l1.25-8.77h1.12l-.34,2.33-.32-.04c.18-.53.46-.98.84-1.34.38-.36.79-.63,1.25-.81.45-.18.87-.27,1.26-.27.25,0,.49.03.71.08.23.05.44.14.66.28l-.64.98c-.13-.07-.29-.13-.47-.17s-.36-.06-.54-.06c-.62,0-1.14.16-1.56.47s-.75.72-.98,1.22c-.23.5-.39,1.03-.49,1.6l-.62,4.5h-1.12Z"/>
  <path class="cls-2" d="M109.27,39.71c-.74,0-1.38-.16-1.93-.48-.55-.32-.98-.76-1.28-1.33-.3-.57-.45-1.23-.45-1.98,0-.69.12-1.34.35-1.97.23-.62.56-1.18.99-1.67.43-.49.93-.88,1.52-1.17s1.24-.43,1.97-.43,1.38.16,1.92.47c.55.31.97.75,1.26,1.32.3.56.44,1.22.44,1.97,0,.7-.12,1.37-.35,2-.23.64-.56,1.2-.99,1.68s-.93.87-1.51,1.16c-.58.28-1.23.43-1.94.43ZM109.28,38.71c.58,0,1.09-.12,1.54-.36.45-.24.83-.57,1.15-.97.32-.4.56-.86.73-1.37.17-.51.25-1.04.25-1.58,0-.84-.23-1.51-.68-2.01-.45-.5-1.08-.75-1.89-.75-.58,0-1.1.12-1.56.37-.46.25-.84.58-1.17.99-.32.41-.56.87-.72,1.37-.16.5-.24,1.02-.24,1.56,0,.84.23,1.51.68,2.01.46.5,1.09.75,1.9.75Z"/>
  <path class="cls-2" d="M47.34,24.19c-.74,0-1.38-.16-1.93-.48-.55-.32-.98-.76-1.28-1.33-.3-.57-.45-1.23-.45-1.98,0-.69.12-1.34.35-1.97.23-.62.56-1.18.99-1.67.43-.49.93-.88,1.52-1.17s1.24-.43,1.97-.43,1.38.16,1.92.47c.55.31.97.75,1.26,1.32.3.56.44,1.22.44,1.97,0,.7-.12,1.37-.35,2-.23.64-.56,1.2-.99,1.68s-.93.87-1.51,1.16c-.58.28-1.23.43-1.94.43ZM47.36,23.2c.58,0,1.09-.12,1.54-.36.45-.24.83-.57,1.15-.97.32-.4.56-.86.73-1.37.17-.51.25-1.04.25-1.58,0-.84-.23-1.51-.68-2.01-.45-.5-1.08-.75-1.89-.75-.58,0-1.1.12-1.56.37-.46.25-.84.58-1.17.99-.32.41-.56.87-.72,1.37-.16.5-.24,1.02-.24,1.56,0,.84.23,1.51.68,2.01.46.5,1.09.75,1.9.75Z"/>
  <path class="cls-2" d="M56.63,24.19c-.59,0-1.12-.09-1.57-.27-.45-.18-.82-.42-1.12-.73-.3-.31-.52-.65-.66-1.01l.85-.59c.15.5.45.9.88,1.2.43.3.98.45,1.63.45.44,0,.84-.07,1.19-.22.36-.15.64-.36.85-.64s.32-.6.32-.97c0-.31-.09-.56-.27-.75-.18-.19-.43-.34-.75-.46-.32-.12-.69-.23-1.12-.34-.32-.08-.63-.17-.93-.28-.3-.1-.56-.23-.8-.38s-.42-.35-.56-.58c-.14-.23-.2-.51-.2-.84,0-.51.14-.96.41-1.35s.65-.7,1.14-.93,1.04-.34,1.67-.34,1.23.15,1.74.44c.5.29.87.72,1.09,1.29l-.77.46c-.19-.45-.47-.78-.83-.98-.36-.2-.79-.3-1.29-.3-.58,0-1.08.14-1.5.43-.41.28-.62.66-.62,1.14,0,.36.15.62.46.79.31.17.76.33,1.35.47.45.11.9.24,1.34.4.45.16.81.39,1.1.68s.44.71.44,1.25c0,.59-.15,1.11-.45,1.56-.3.44-.72.79-1.24,1.03-.52.24-1.13.36-1.82.36Z"/>
  <path class="cls-2" d="M65.56,24.19c-.75,0-1.37-.16-1.88-.49-.5-.33-.89-.77-1.15-1.33-.26-.56-.39-1.2-.39-1.91,0-.66.1-1.31.31-1.94.21-.63.51-1.19.91-1.7.4-.5.88-.9,1.44-1.2.56-.3,1.2-.44,1.91-.44.82,0,1.5.2,2.06.61.55.41.92,1.01,1.09,1.81l-1.03.32c-.11-.55-.34-.98-.69-1.29-.36-.31-.84-.47-1.44-.47-.56,0-1.05.13-1.48.38-.43.26-.79.6-1.09,1.02-.3.43-.52.89-.67,1.4-.15.5-.22,1.01-.22,1.52s.08.96.24,1.37c.16.42.41.75.76,1s.79.37,1.33.37c.63,0,1.18-.17,1.65-.5.47-.33.84-.78,1.11-1.33l.96.44c-.4.8-.93,1.39-1.58,1.78s-1.37.59-2.15.59Z"/>
  <path class="cls-2" d="M74.67,24.19c-.7,0-1.31-.16-1.83-.49-.52-.33-.93-.77-1.21-1.34-.28-.57-.43-1.22-.43-1.94s.11-1.35.34-1.98c.23-.63.55-1.19.96-1.68.41-.49.9-.88,1.47-1.17.56-.28,1.18-.43,1.84-.43.58,0,1.09.11,1.53.33.44.22.79.52,1.07.92.27.39.45.84.52,1.35l-.36.27.39-2.74h1.1l-1.23,8.77h-1.12l.39-2.76.32.28c-.24.55-.54,1.01-.91,1.4-.37.39-.79.68-1.27.89-.48.21-1.01.31-1.57.31ZM74.89,23.16c.53,0,1.02-.12,1.47-.36.44-.24.82-.55,1.14-.95.31-.4.56-.84.73-1.34.17-.5.26-1.01.26-1.53,0-.56-.1-1.04-.31-1.46-.21-.41-.5-.74-.87-.97-.37-.23-.82-.35-1.33-.35-.55,0-1.04.12-1.49.36-.45.24-.84.55-1.16.94-.32.39-.57.84-.74,1.34-.17.5-.26,1.01-.26,1.53s.1,1.03.31,1.45c.21.42.5.75.89.99.39.24.84.36,1.36.36Z"/>
  <path class="cls-2" d="M81.59,24.07l1.25-8.77h1.12l-.28,2.05-.29-.04c.23-.49.5-.89.84-1.2.33-.31.71-.55,1.12-.7.41-.15.86-.23,1.33-.23.83,0,1.48.22,1.94.66.46.44.69,1.1.69,1.99,0,.12,0,.25,0,.38,0,.14-.02.28-.04.42l-.76,5.45h-1.12l.71-5.11c.02-.14.04-.28.05-.42.01-.14.02-.28.02-.42,0-.68-.15-1.17-.45-1.5-.3-.32-.74-.48-1.33-.48-.8,0-1.45.28-1.98.84s-.87,1.44-1.05,2.65l-.62,4.43h-1.14Z"/>
  <path class="cls-2" d="M94.89,24.19c-.74,0-1.38-.16-1.93-.48-.55-.32-.98-.76-1.28-1.33-.3-.57-.45-1.23-.45-1.98,0-.69.12-1.34.35-1.97.23-.62.56-1.18.99-1.67.43-.49.93-.88,1.52-1.17s1.24-.43,1.97-.43,1.38.16,1.92.47c.55.31.97.75,1.26,1.32.3.56.44,1.22.44,1.97,0,.7-.12,1.37-.35,2-.23.64-.56,1.2-.99,1.68s-.93.87-1.51,1.16c-.58.28-1.23.43-1.94.43ZM94.91,23.2c.58,0,1.09-.12,1.54-.36.45-.24.83-.57,1.15-.97.32-.4.56-.86.73-1.37.17-.51.25-1.04.25-1.58,0-.84-.23-1.51-.68-2.01-.45-.5-1.08-.75-1.89-.75-.58,0-1.1.12-1.56.37-.46.25-.84.58-1.17.99-.32.41-.56.87-.72,1.37-.16.5-.24,1.02-.24,1.56,0,.84.23,1.51.68,2.01.46.5,1.09.75,1.9.75Z"/>
</svg>