<?xml version="1.0" encoding="UTF-8"?>
<svg id="Livello_1" data-name="Livello 1" xmlns="http://www.w3.org/2000/svg" viewBox="0 0 41.44 35.91">
  <defs>
    <style>
      .cls-1 {
        fill: #3626a7;
      }

      .cls-2 {
        fill: #222;
      }
    </style>
  </defs>
  <path class="cls-1" d="M.2,34.35L17.26,1.6s2.51-.11,3.34,0c7.2.94,7.13,32.74,7.13,32.74h-3.7l-5.39-24.79c-.15-.68-1.06-.79-1.37-.17l-12.26,24.56c-.12.25-.38.4-.65.4H.2ZM8.19,26.65l1.63-3.3c.12-.25.38-.41.66-.41h11.38l.85,3.71h-14.52Z"/>
  <path class="cls-2" d="M41.24,1.56l-.25,1.8h-5.31l-1.98,14.08h-.03l-1.92,13.82c-.01.07-.03.13-.03.2v.07l-.42,2.82c-.43-.07-.79-.24-1.08-.51-.38-.37-.58-.92-.58-1.66,0-.09,0-.2.01-.3,0-.12.01-.22.03-.34l1.98-14.08h.01l1.98-14.08-5.09-1.8h12.67Z"/>
</svg>