<?xml version="1.0" encoding="UTF-8"?>
<svg id="Livello_1" data-name="Livello 1" xmlns="http://www.w3.org/2000/svg" viewBox="0 0 263.47 260.3">
  <defs>
    <style>
      .cls-1 {
        fill: #1d1d1b;
        stroke: #1d1d1b;
        stroke-miterlimit: 10;
        stroke-width: .14px;
      }
    </style>
  </defs>
  <path class="cls-1" d="m159.68,106.9v9.89c0,3.04-1.06,5.84-2.84,8.03-.61.75-1.29,1.42-2.05,2.02v-19.94h4.88Z"/>
  <path class="cls-1" d="m152.35,132.02v10.01c-3.61,6.7-10.7,11.29-18.77,11.29-11.69,0-21.31-9.62-21.31-21.31h0s21.31,0,21.31,0h18.77Z"/>
  <path class="cls-1" d="m159.87,142.75v10.5h-4.88v-21.15c.76.63,1.44,1.35,2.05,2.14,1.77,2.32,2.84,5.29,2.84,8.51Z"/>
  <path class="cls-1" d="m134.64,106.9h17.71v21.45c-1.65.78-3.5,1.21-5.44,1.21h-34.92c0-6.26,2.54-11.93,6.64-16.02,1.65-1.65,3.55-3.05,5.64-4.13,3.11-1.61,6.64-2.51,10.38-2.51Z"/>
  <path class="cls-1" d="m154.88,132.02c0,.09,0,.18,0,.27v-.27h0Z"/>
</svg>