<?xml version="1.0" encoding="UTF-8"?>
<svg id="Livello_1" data-name="Livello 1" xmlns="http://www.w3.org/2000/svg" viewBox="0 0 41.44 48">
  <defs>
    <style>
      .cls-1 {
        fill: #781d1d;
      }
    </style>
  </defs>
  <path class="cls-1" d="M41.25,0l-8.2,1.46c-.47.05-1.7-.06-2.16-.11C-4.59-2.76-.02,10.37,2.16,30.75v.06S0,47.81,0,47.81c0,.1.08.19.19.19h8.02v-8.59c.27-4.59,1.72-3.87,3.85-3.87h17.75l-2.07,12.45c.02.07,2.77-.23,2.79-.16,8.94-1.01,8.39-.38,8.39-3.97-.5-5-1.01-8.09-1.14-8.88-1.98-11.42,3.65-23.19,3.65-34.79,0-.01,0-.08-.19-.19ZM32.43,12.16c-.24.36-1.22,1-1.77,1.43-7.52,5.88-1.55,11.66-4.96,14.36-.18.16-.41.28-.63.43-3.66,2.51-14.36,2.55-16.96-2.34-2.61-4.89,1.25-11,7.53-15.39,9.54-6.66,18.99-1.78,16.79,1.51Z"/>
  <path class="cls-1" d="M21.09,27.47c-1.33.23-2.59-.67-2.81-2s.67-2.6,2-2.81c1.34-.23,2.6.67,2.83,2,.22,1.33-.68,2.6-2.02,2.81Z"/>
</svg>