<?xml version="1.0" encoding="UTF-8"?>
<svg id="Livello_1" data-name="Livello 1" xmlns="http://www.w3.org/2000/svg" viewBox="0 0 129.77 40.51">
  <defs>
    <style>
      .cls-1 {
        fill: #781d1d;
      }
    </style>
  </defs>
  <g>
    <g>
      <path class="cls-1" d="M15.81,2.07l-2.85.51c-.16.02-.59-.02-.75-.04C-.11,1.11,1.48,5.67,2.24,12.75v.02s-.75,5.9-.75,5.9c0,.04.03.07.07.07h2.79v-2.98c.09-1.59.6-1.34,1.34-1.34h6.17l-.72,4.32s.96-.08.97-.06c3.1-.35,2.91-.13,2.91-1.38-.17-1.74-.35-2.81-.4-3.09-.69-3.97,1.27-8.05,1.27-12.08,0,0,0-.03-.07-.07ZM12.75,6.29c-.08.12-.42.35-.62.5-2.61,2.04-.54,4.05-1.72,4.99-.06.06-.14.1-.22.15-1.27.87-4.99.88-5.89-.81-.91-1.7.43-3.82,2.61-5.34,3.31-2.31,6.6-.62,5.83.52Z"/>
      <path class="cls-1" d="M8.81,11.61c-.46.08-.9-.23-.98-.7s.23-.9.7-.98c.47-.08.9.23.98.7.07.46-.24.9-.7.98Z"/>
    </g>
    <path d="M18.81.25h1.73v18.49h-1.73V.25Z"/>
    <path d="M24.51,12.4c.02,2.81,1.92,4.73,4.76,4.73,2.37,0,3.99-1.36,4.51-3.45h1.73c-.54,3.08-2.83,5.05-6.24,5.05-3.9,0-6.48-2.56-6.48-6.41s2.59-6.41,6.48-6.41,6.26,2.29,6.24,5.89v.59h-11ZM33.73,10.8c-.52-2.1-2.1-3.28-4.46-3.28s-3.99,1.28-4.56,3.28h9.02Z"/>
    <path d="M43.2,5.87c1.82,0,3.28.2,4.61.69v1.73c-.86-.3-2.69-.81-4.83-.81-2.42,0-3.65.57-3.65,1.7,0,2.84,9,1.31,9,5.74,0,2.32-1.8,3.82-5.57,3.82-1.82,0-3.3-.17-4.63-.69v-1.73c.86.32,2.71.84,4.88.84,2.42,0,3.6-.91,3.6-2.05,0-2.83-9-1.33-9-5.77,0-2.32,1.85-3.48,5.6-3.48Z"/>
    <path d="M55.55,5.87c1.82,0,3.28.2,4.61.69v1.73c-.86-.3-2.69-.81-4.83-.81-2.42,0-3.65.57-3.65,1.7,0,2.84,9,1.31,9,5.74,0,2.32-1.8,3.82-5.57,3.82-1.82,0-3.3-.17-4.63-.69v-1.73c.86.32,2.71.84,4.88.84,2.42,0,3.6-.91,3.6-2.05,0-2.83-9-1.33-9-5.77,0-2.32,1.85-3.48,5.6-3.48Z"/>
    <path d="M68.98,5.92c3.9,0,6.48,2.56,6.48,6.41v6.16h-1.73v-2.37l-.22.02v.22c0,.86-1.55,2.37-4.73,2.37-3.7,0-6.29-2.54-6.29-6.29s2.56-6.53,6.48-6.53ZM68.89,17.11c3.62,0,4.86-1.92,4.86-4.78s-1.82-4.81-4.76-4.81-4.76,1.95-4.76,4.81,1.75,4.78,4.66,4.78Z"/>
    <path d="M79.44,18.74h-1.73v-6.36c0-3.72,2.49-6.21,6.34-6.21s6.21,2.49,6.21,6.21v6.36h-1.73v-6.56c0-2.64-1.85-4.41-4.56-4.41s-4.54,1.8-4.54,4.41v6.56Z"/>
    <path d="M98.79,5.92c3.18,0,4.73,1.5,4.73,2.37v.22h.22V0h1.73v12.33c0,3.85-2.59,6.41-6.48,6.41s-6.48-2.64-6.48-6.53,2.59-6.29,6.29-6.29ZM98.99,17.11c2.93,0,4.76-1.82,4.76-4.78s-1.23-4.81-4.86-4.81c-2.91,0-4.66,1.82-4.66,4.81s1.92,4.78,4.76,4.78Z"/>
    <path d="M109.44,18.74h-1.73v-6.36c0-3.72,2.49-6.21,6.34-6.21v1.6c-2.76,0-4.61,1.73-4.61,4.41v6.56Z"/>
    <path d="M121.42,5.92c3.9,0,6.48,2.56,6.48,6.41s-2.59,6.41-6.48,6.41-6.48-2.56-6.48-6.41,2.59-6.41,6.48-6.41ZM121.42,17.13c2.86,0,4.76-1.95,4.76-4.81s-1.9-4.81-4.76-4.81-4.76,1.95-4.76,4.81,1.9,4.81,4.76,4.81Z"/>
  </g>
  <g>
    <path class="cls-1" d="M24.29,26.24v13.76h-2.85v-14.02l-5.92-2.12v-.5h14.69v3.49c-.38-.04-.75-.08-1.13-.12l-4.79-.5Z"/>
    <path d="M35.18,27.18c3.9,0,6.48,2.56,6.48,6.41s-2.59,6.41-6.48,6.41-6.48-2.56-6.48-6.41,2.59-6.41,6.48-6.41ZM35.18,38.4c2.86,0,4.76-1.95,4.76-4.81s-1.9-4.81-4.76-4.81-4.76,1.95-4.76,4.81,1.9,4.81,4.76,4.81Z"/>
    <path d="M49.11,27.13c1.82,0,3.28.2,4.61.69v1.73c-.86-.3-2.69-.81-4.83-.81-2.42,0-3.65.57-3.65,1.7,0,2.84,9,1.31,9,5.74,0,2.32-1.8,3.82-5.57,3.82-1.82,0-3.3-.17-4.63-.69v-1.73c.86.32,2.71.84,4.88.84,2.42,0,3.6-.91,3.6-2.05,0-2.83-9-1.33-9-5.77,0-2.32,1.85-3.48,5.6-3.48Z"/>
    <path d="M62.54,38.4c2.37,0,3.99-1.36,4.51-3.45h1.73c-.54,3.08-2.83,5.05-6.24,5.05-3.9,0-6.48-2.56-6.48-6.41s2.59-6.41,6.48-6.41c3.4,0,5.69,1.97,6.24,5.05h-1.73c-.52-2.1-2.14-3.45-4.51-3.45-2.86,0-4.76,1.95-4.76,4.81s1.9,4.81,4.76,4.81Z"/>
    <path d="M77.39,27.18c3.9,0,6.48,2.56,6.48,6.41v6.16h-1.73v-2.37l-.22.02v.22c0,.86-1.55,2.37-4.73,2.37-3.7,0-6.29-2.54-6.29-6.29s2.56-6.53,6.48-6.53ZM77.29,38.37c3.62,0,4.86-1.92,4.86-4.78s-1.82-4.81-4.76-4.81-4.76,1.95-4.76,4.81,1.75,4.78,4.66,4.78Z"/>
    <path d="M87.84,40h-1.73v-6.36c0-3.72,2.49-6.21,6.34-6.21s6.21,2.49,6.21,6.21v6.36h-1.73v-6.56c0-2.64-1.85-4.41-4.56-4.41s-4.54,1.8-4.54,4.41v6.56Z"/>
    <path d="M107.39,27.18c3.89,0,6.48,2.56,6.48,6.41s-2.59,6.41-6.48,6.41-6.48-2.56-6.48-6.41,2.59-6.41,6.48-6.41ZM107.39,38.4c2.86,0,4.76-1.95,4.76-4.81s-1.9-4.81-4.76-4.81-4.76,1.95-4.76,4.81,1.9,4.81,4.76,4.81Z"/>
  </g>
</svg>